HIERARCHY
ROOT joint_Root
{
	OFFSET 0.0 0.0 0.0
	CHANNELS 6 Xposition Yposition Zposition Zrotation Xrotation Yrotation 
	JOINT Hips
	{
		OFFSET -0.726466 93.3139 -2.00062
		CHANNELS 6 Xposition Yposition Zposition Zrotation Xrotation Yrotation 
		JOINT Spine
		{
			OFFSET 15.7357 0.0 0.0
			CHANNELS 6 Xposition Yposition Zposition Zrotation Xrotation Yrotation 
			JOINT Chest
			{
				OFFSET 8.98455 -0.406207 0.0
				CHANNELS 6 Xposition Yposition Zposition Zrotation Xrotation Yrotation 
				JOINT Neck
				{
					OFFSET 16.3773 0.0 0.0
					CHANNELS 6 Xposition Yposition Zposition Zrotation Xrotation Yrotation 
					JOINT Head
					{
						OFFSET 6.45672 0.0 0.0
						CHANNELS 6 Xposition Yposition Zposition Zrotation Xrotation Yrotation 
						End Site
						{
							OFFSET 0.0 0.0 0.0
						}
					}
				}
				JOINT Shoulder_L
				{
					OFFSET 12.9942 -0.242716 4.98039
					CHANNELS 6 Xposition Yposition Zposition Zrotation Xrotation Yrotation 
					JOINT UpperArm_L
					{
						OFFSET 5.34809 0.0 0.0
						CHANNELS 6 Xposition Yposition Zposition Zrotation Xrotation Yrotation 
						JOINT LowerArm_L
						{
							OFFSET 24.3286 1.87007e-05 0.0
							CHANNELS 6 Xposition Yposition Zposition Zrotation Xrotation Yrotation 
							JOINT Hand_L
							{
								OFFSET 22.2916 0.0 0.0
								CHANNELS 6 Xposition Yposition Zposition Zrotation Xrotation Yrotation 
								End Site
								{
									OFFSET 0.0 0.0 0.0
								}
							}
						}
					}
				}
				JOINT Shoulder_R
				{
					OFFSET 12.9945 -0.242716 -4.98039
					CHANNELS 6 Xposition Yposition Zposition Zrotation Xrotation Yrotation 
					JOINT UpperArm_R
					{
						OFFSET -5.34813 0.0 0.0
						CHANNELS 6 Xposition Yposition Zposition Zrotation Xrotation Yrotation 
						JOINT LowerArm_R
						{
							OFFSET -24.3289 0.000322201 0.0
							CHANNELS 6 Xposition Yposition Zposition Zrotation Xrotation Yrotation 
							JOINT Hand_R
							{
								OFFSET -22.2915 -0.000108084 0.0
								CHANNELS 6 Xposition Yposition Zposition Zrotation Xrotation Yrotation 
								End Site
								{
									OFFSET 0.0 0.0 0.0
								}
							}
						}
					}
				}
			}
		}
		JOINT UpperLeg_L
		{
			OFFSET -2.19248 -6.46944 0.0
			CHANNELS 6 Xposition Yposition Zposition Zrotation Xrotation Yrotation 
			JOINT LowerLeg_L
			{
				OFFSET 39.0811 0.0 -1.23785e-05
				CHANNELS 6 Xposition Yposition Zposition Zrotation Xrotation Yrotation 
				JOINT Foot_L
				{
					OFFSET 40.9854 0.0 -1.26872e-05
					CHANNELS 6 Xposition Yposition Zposition Zrotation Xrotation Yrotation 
					JOINT Toes_L
					{
						OFFSET 11.7543 0.0 0.0
						CHANNELS 6 Xposition Yposition Zposition Zrotation Xrotation Yrotation 
						End Site
						{
							OFFSET 0.0 0.0 0.0
						}
					}
				}
			}
		}
		JOINT UpperLeg_R
		{
			OFFSET -2.19251 6.46944 0.0
			CHANNELS 6 Xposition Yposition Zposition Zrotation Xrotation Yrotation 
			JOINT LowerLeg_R
			{
				OFFSET -39.0811 -0.00228153 -0.0401928
				CHANNELS 6 Xposition Yposition Zposition Zrotation Xrotation Yrotation 
				JOINT Foot_R
				{
					OFFSET -40.9854 0.0 0.0
					CHANNELS 6 Xposition Yposition Zposition Zrotation Xrotation Yrotation 
					JOINT Toes_R
					{
						OFFSET -11.7543 0.0 0.0
						CHANNELS 6 Xposition Yposition Zposition Zrotation Xrotation Yrotation 
						End Site
						{
							OFFSET 0.0 0.0 0.0
						}
					}
				}
			}
		}
	}
}
MOTION
Frames:	5
Frame Time:	0.0333333
0.000000 0.000000 0.000000 0.000000 0.000000 -0.000000 -2.119900 93.265900 -2.181440 88.772400 -2.774290 0.087870 15.735700 0.000005 -0.000001 98.196000 87.166300 -99.306900 8.984550 -0.406207 -0.000000 -2.146880 0.903796 -2.204720 16.377300 -0.000001 -0.000001 1.386520 -4.334290 6.989550 6.456720 -0.000001 -0.000000 4.769610 -1.222670 -5.395620 12.994200 -0.242716 4.980390 -89.710500 -0.941949 -72.912600 5.348090 -0.000007 -0.000001 -71.350400 32.052000 -10.212900 24.328600 0.000019 0.000005 4.570870 11.928400 -21.146200 22.291600 -0.000001 0.000005 4.898630 5.475460 -5.575700 12.994500 -0.242716 -4.980390 93.383400 -7.446490 -65.478400 -5.348130 -0.000001 -0.000004 -83.579100 -53.386400 -130.791000 -24.328900 0.000322 -0.000009 0.098092 0.598302 -9.408010 -22.291500 -0.000108 -0.000004 34.854800 4.853890 10.276700 -2.192480 -6.469440 -0.000000 -175.931000 -9.908270 -3.870130 39.081100 -0.000007 -0.000012 -0.051392 0.194860 14.774400 40.985400 -0.000006 -0.000013 -1.203280 4.021110 -60.758700 11.754300 -0.000000 0.000003 -0.000003 -0.000048 -16.579400 -2.192510 6.469440 -0.000001 -178.813000 12.184100 178.516000 -39.081100 -0.002282 -0.040193 -0.006241 0.045478 11.891600 -40.985400 0.000008 0.000006 4.584330 7.086960 -61.210200 -11.754300 -0.000006 -0.000006 -0.006850 -0.078370 -19.763400
0.000000 0.000000 0.000000 0.000000 0.000000 -0.000000 -2.126660 93.265000 -2.166190 88.793300 -3.011280 0.090071 15.735700 0.000005 -0.000001 98.669400 87.178600 -99.715000 8.984550 -0.406207 -0.000000 -2.178310 0.941032 -2.073120 16.377300 -0.000001 -0.000001 1.503790 -4.481040 7.127830 6.456720 -0.000001 -0.000000 4.757080 -1.401980 -5.234450 12.994200 -0.242716 4.980390 -89.731500 -0.870182 -72.851300 5.348090 -0.000007 -0.000001 -71.088700 31.553500 -10.159600 24.328600 0.000019 0.000005 4.606250 12.226500 -20.828800 22.291600 -0.000001 0.000005 4.982270 5.471160 -5.413480 12.994500 -0.242716 -4.980390 93.505900 -7.667270 -65.335700 -5.348130 -0.000001 -0.000004 -80.271000 -53.756500 -129.932000 -24.328900 0.000322 -0.000009 0.109868 0.455493 -13.663700 -22.291500 -0.000108 -0.000004 32.941700 4.959820 8.147040 -2.192480 -6.469440 -0.000000 -175.944000 -10.061200 -3.801530 39.081100 -0.000007 -0.000012 -0.051449 0.195709 14.728900 40.985400 -0.000006 -0.000013 -1.222910 3.943520 -60.764600 11.754300 -0.000000 0.000003 -0.000005 -0.000069 -16.580200 -2.192510 6.469440 -0.000001 -178.844000 11.997900 178.507000 -39.081100 -0.002282 -0.040193 -0.006585 0.047025 11.912500 -40.985400 0.000008 0.000006 4.499620 7.158450 -61.206000 -11.754300 -0.000006 -0.000006 -0.007061 -0.080188 -19.837600
0.000000 0.000000 0.000000 0.000000 0.000000 -0.000000 -2.168550 93.260300 -2.159330 88.745200 -3.125760 0.080395 15.735700 0.000005 -0.000001 98.992000 87.192500 -99.970300 8.984550 -0.406207 -0.000000 -2.211250 0.962499 -1.937890 16.377300 -0.000001 -0.000001 1.643960 -4.743450 7.304810 6.456720 -0.000001 -0.000000 4.804800 -1.691210 -4.964860 12.994200 -0.242716 4.980390 -89.753800 -0.796353 -72.820100 5.348090 -0.000007 -0.000001 -70.853400 30.992400 -10.186500 24.328600 0.000019 0.000005 4.623530 12.544300 -20.422500 22.291600 -0.000001 0.000005 5.127590 5.467440 -5.274970 12.994500 -0.242716 -4.980390 93.578500 -7.804840 -65.273100 -5.348130 -0.000001 -0.000004 -76.544500 -54.499200 -128.919000 -24.328900 0.000322 -0.000009 0.413586 1.226450 -18.627700 -22.291500 -0.000108 -0.000004 30.786600 5.080800 5.535250 -2.192480 -6.469440 -0.000000 -175.862000 -10.184200 -3.816950 39.081100 -0.000007 -0.000012 -0.052337 0.198030 14.804000 40.985400 -0.000006 -0.000013 -1.250430 3.951270 -60.817100 11.754300 -0.000000 0.000003 -0.000005 -0.000066 -16.580100 -2.192510 6.469440 -0.000001 -178.763000 11.831600 178.507000 -39.081100 -0.002282 -0.040193 -0.006393 0.046144 11.905200 -40.985400 0.000008 0.000006 4.567020 7.136670 -61.214900 -11.754300 -0.000006 -0.000006 -0.006751 -0.077509 -19.728200
0.000000 0.000000 0.000000 0.000000 0.000000 -0.000000 -2.228810 93.256200 -2.156800 88.757200 -3.152850 0.100675 15.735700 0.000005 -0.000001 99.131500 87.186600 -100.074000 8.984550 -0.406207 -0.000000 -2.201900 0.974654 -1.865530 16.377300 -0.000001 -0.000001 1.745880 -5.014320 7.464110 6.456720 -0.000001 -0.000000 4.812720 -1.998080 -4.721300 12.994200 -0.242716 4.980390 -89.774100 -0.728658 -72.776200 5.348090 -0.000007 -0.000001 -70.660300 30.548500 -10.265300 24.328600 0.000019 0.000005 4.631310 12.804600 -20.078100 22.291600 -0.000001 0.000005 5.317400 5.465580 -5.205880 12.994500 -0.242716 -4.980390 93.587100 -7.797850 -65.201000 -5.348130 -0.000001 -0.000004 -72.303500 -55.477500 -127.442000 -24.328900 0.000322 -0.000009 1.234500 2.665630 -24.850100 -22.291500 -0.000108 -0.000004 29.744900 5.179950 3.209590 -2.192480 -6.469440 -0.000000 -175.828000 -10.209100 -3.791740 39.081100 -0.000007 -0.000012 -0.052536 0.198760 14.805600 40.985400 -0.000006 -0.000013 -1.294210 3.941300 -60.814200 11.754300 -0.000000 0.000003 -0.000004 -0.000060 -16.579900 -2.192510 6.469440 -0.000001 -178.742000 11.831900 178.498000 -39.081100 -0.002282 -0.040193 -0.007260 0.050035 11.956300 -40.985400 0.000008 0.000006 4.563140 7.140250 -61.237200 -11.754300 -0.000006 -0.000006 -0.006737 -0.077390 -19.723400
0.000000 0.000000 0.000000 0.000000 0.000000 -0.000000 -2.305580 93.245300 -2.174050 88.742700 -3.134130 0.124258 15.735700 0.000005 -0.000001 98.969000 87.169100 -99.869000 8.984550 -0.406207 -0.000000 -2.165430 0.960392 -1.781840 16.377300 -0.000001 -0.000001 1.779620 -5.232780 7.549510 6.456720 -0.000001 -0.000000 4.833020 -2.202800 -4.633730 12.994200 -0.242716 4.980390 -89.791700 -0.671675 -72.770600 5.348090 -0.000007 -0.000001 -70.532100 30.271800 -10.263500 24.328600 0.000019 0.000005 4.624570 12.868600 -19.960600 22.291600 -0.000001 0.000005 5.399100 5.463720 -5.137330 12.994500 -0.242716 -4.980390 93.547700 -7.716840 -65.216200 -5.348130 -0.000001 -0.000004 -68.231400 -56.502500 -125.773000 -24.328900 0.000322 -0.000009 2.284710 3.595210 -32.468800 -22.291500 -0.000108 -0.000004 28.785800 5.284320 0.488879 -2.192480 -6.469440 -0.000000 -175.756000 -10.156900 -3.841240 39.081100 -0.000007 -0.000012 -0.053922 0.202351 14.921300 40.985400 -0.000006 -0.000013 -1.352910 3.901510 -60.848000 11.754300 -0.000000 0.000003 -0.000003 -0.000046 -16.579300 -2.192510 6.469440 -0.000001 -178.689000 11.744600 178.478000 -39.081100 -0.002282 -0.040193 -0.008289 0.054489 12.043100 -40.985400 0.000008 0.000006 4.532500 7.068290 -61.272700 -11.754300 -0.000006 -0.000006 -0.006563 -0.075864 -19.661100
